<?xml version="1.0" encoding="utf-8"?>
<!-- Generator: Adobe Illustrator 16.0.4, SVG Export Plug-In . SVG Version: 6.00 Build 0)  -->
<!DOCTYPE svg PUBLIC "-//W3C//DTD SVG 1.1//EN" "http://www.w3.org/Graphics/SVG/1.1/DTD/svg11.dtd">
<svg version="1.1" id="Layer_1" xmlns="http://www.w3.org/2000/svg" xmlns:xlink="http://www.w3.org/1999/xlink" x="0px" y="0px"
	 width="165px" height="50px" viewBox="0 0 165 50" enable-background="new 0 0 165 50" xml:space="preserve">
<g>
	<linearGradient id="SVGID_1_" gradientUnits="userSpaceOnUse" x1="26.2231" y1="41.7598" x2="26.2231" y2="6.0526">
		<stop  offset="0" style="stop-color:#01519E"/>
		<stop  offset="1" style="stop-color:#009FE3"/>
	</linearGradient>
	<path fill="url(#SVGID_1_)" d="M36.381,6.307H16.065c-4.284,0-7.769,3.485-7.769,7.768v20.315c0,4.285,3.485,7.77,7.769,7.77
		h20.316c4.283,0,7.768-3.484,7.768-7.77V14.075C44.149,9.792,40.665,6.307,36.381,6.307z M41,34.391c0,2.548-2.072,4.62-4.619,4.62
		H16.065c-2.546,0-4.62-2.072-4.62-4.62V14.075c0-2.546,2.073-4.619,4.62-4.619h20.316c2.547,0,4.619,2.072,4.619,4.619V34.391z"/>
	<linearGradient id="SVGID_2_" gradientUnits="userSpaceOnUse" x1="26.2231" y1="38.9639" x2="26.2231" y2="9.5031">
		<stop  offset="0" style="stop-color:#8C0405"/>
		<stop  offset="1" style="stop-color:#EC1C24"/>
	</linearGradient>
	<path fill="url(#SVGID_2_)" d="M36.381,10.921H16.065c-1.74,0-3.154,1.416-3.154,3.154v20.315c0,1.74,1.415,3.154,3.154,3.154
		h20.316c1.739,0,3.154-1.414,3.154-3.154V14.075C39.535,12.336,38.121,10.921,36.381,10.921z M21.331,31.741
		c-0.007,0.043-0.017,0.082-0.03,0.121l-0.001,0.006l-0.001,0.002c-0.025,0.077-0.061,0.151-0.106,0.217l-0.937,1.808
		c-0.092,0.396-0.446,0.691-0.871,0.691h-3.732c-0.481,0-0.872-0.38-0.892-0.854c0-0.014-0.001-0.025-0.001-0.039
		c0-0.121,0.025-0.237,0.068-0.344l0.042-0.086c0,0,1.047-2.039,1.078-2.097c0.14-0.264,0.409-0.448,0.724-0.468
		c0.021-0.002,0.041-0.005,0.062-0.005c0.021,0,0.041,0.003,0.062,0.005h3.656c0.493,0,0.893,0.398,0.893,0.892
		C21.345,31.642,21.339,31.691,21.331,31.741z M31.239,27.57h-6.83c-0.64,0-1.217,0.352-1.51,0.92l-0.078,0.118
		c-0.106,0.376-0.45,0.649-0.859,0.649h-3.721c-0.494,0-0.894-0.398-0.894-0.893c0-0.028,0.002-0.054,0.004-0.081
		c0.01-0.104,0.038-0.203,0.079-0.293l0.002-0.002l0.005-0.014c0.002-0.003,0.004-0.009,0.007-0.015l0.371-0.783l0.61-1.232
		c1.209-2.18,3.476-3.522,5.984-3.522h6.83c0.936,0,1.698-0.762,1.698-1.699s-0.762-1.698-1.698-1.698h-7.82
		c-0.044,0.006-0.089,0.011-0.137,0.011c-0.045,0-0.09-0.005-0.135-0.011c-0.066-0.011-0.131-0.028-0.192-0.052
		c-0.33-0.131-0.564-0.453-0.564-0.83c0-0.117,0.024-0.229,0.064-0.333c0.017-0.041,0.036-0.08,0.059-0.118l1.596-3.259l0.054-0.107
		c0.007-0.014,0.015-0.027,0.023-0.041c0.159-0.245,0.436-0.408,0.75-0.408h6.303c3.773,0,6.844,3.07,6.844,6.844
		S35.012,27.57,31.239,27.57z"/>
	<g>
		<linearGradient id="SVGID_3_" gradientUnits="userSpaceOnUse" x1="59.1187" y1="34.5195" x2="59.1187" y2="15.1458">
			<stop  offset="0" style="stop-color:#01519E"/>
			<stop  offset="1" style="stop-color:#009FE3"/>
		</linearGradient>
		<path fill="url(#SVGID_3_)" d="M53.877,13.874h8.629c2.715,0,5.852,1.503,4.978,7.143c-1.001,6.558-4.639,6.303-7.085,6.154
			c-1.129-0.062-3.779-0.458-3.921-0.542L55.23,34.52h-4.626L53.877,13.874z M60.595,23.182c1.172,0,1.919-0.72,2.236-2.736
			c0.304-1.981-0.366-2.552-1.382-2.552h-3.581l-0.846,5.288H60.595z"/>
		<linearGradient id="SVGID_4_" gradientUnits="userSpaceOnUse" x1="73.3218" y1="34.5195" x2="73.3218" y2="15.4236">
			<stop  offset="0" style="stop-color:#01519E"/>
			<stop  offset="1" style="stop-color:#009FE3"/>
		</linearGradient>
		<path fill="url(#SVGID_4_)" d="M69.521,19.543h4.005l0.31,1.89c0.959-1.009,2.468-2.038,4.167-2.038
			c0.585,0,1.094,0.015,1.489,0.162l-0.699,4.448c-0.423-0.021-1.326-0.042-2.185-0.042c-1.412,0-2.631,0.148-3.427,1.679
			l-1.403,8.876h-4.626L69.521,19.543z"/>
		<linearGradient id="SVGID_5_" gradientUnits="userSpaceOnUse" x1="86.0723" y1="34.7959" x2="86.0723" y2="15.4234">
			<stop  offset="0" style="stop-color:#01519E"/>
			<stop  offset="1" style="stop-color:#009FE3"/>
		</linearGradient>
		<path fill="url(#SVGID_5_)" d="M87.049,19.262c3.109-0.021,6.213,0.81,6.043,4.314c-0.305,7.065-8.277,5.704-9.322,5.281
			c-0.295,1.846,0.262,2.263,2.266,2.271c1.506,0.042,4.207-0.213,5.793-0.501l-0.562,3.271c-2.223,0.692-4.668,1.073-8.088,0.819
			c-3.588-0.233-4.801-3.414-3.788-8.884C80.266,21.235,81.548,19.303,87.049,19.262z M88.338,24.317
			c0.211-1.178-0.395-1.51-1.635-1.488c-2.01,0.043-2.277,1.431-2.559,3.024C84.145,25.854,87.924,26.645,88.338,24.317z"/>
		<linearGradient id="SVGID_6_" gradientUnits="userSpaceOnUse" x1="102.1133" y1="34.6875" x2="102.1133" y2="15.2825">
			<stop  offset="0" style="stop-color:#01519E"/>
			<stop  offset="1" style="stop-color:#009FE3"/>
		</linearGradient>
		<path fill="url(#SVGID_6_)" d="M100.352,19.318c1.271,0,2.908,0.33,4.027,0.917l1.254-7.855h4.613l-3.504,22.14h-3.885
			l-0.537-1.452c-1.135,0.83-2.588,1.62-4.314,1.62c-3.504,0-4.584-3.787-3.766-8.433C94.973,22.06,96.244,19.318,100.352,19.318z
			 M99.943,30.845c1.213,0,2.186-0.274,2.865-0.789l1.076-6.776c-0.633-0.358-1.613-0.5-2.686-0.5c-1.014,0-1.721,0.571-2.291,4.111
			C98.4,30.069,98.859,30.845,99.943,30.845z"/>
		<linearGradient id="SVGID_7_" gradientUnits="userSpaceOnUse" x1="112.6191" y1="34.5195" x2="112.6191" y2="15.1444">
			<stop  offset="0" style="stop-color:#01519E"/>
			<stop  offset="1" style="stop-color:#009FE3"/>
		</linearGradient>
		<path fill="url(#SVGID_7_)" d="M111.041,19.543h4.627l-2.371,14.977h-4.625L111.041,19.543z M111.727,14.544
			c0.055-0.423,0.338-0.705,0.789-0.705h3.525c0.422,0,0.57,0.311,0.514,0.705l-0.436,2.855c-0.057,0.423-0.346,0.649-0.742,0.649
			h-3.525c-0.395,0-0.619-0.253-0.562-0.649L111.727,14.544z"/>
		<linearGradient id="SVGID_8_" gradientUnits="userSpaceOnUse" x1="123.4727" y1="34.5195" x2="123.4727" y2="15.2824">
			<stop  offset="0" style="stop-color:#01519E"/>
			<stop  offset="1" style="stop-color:#009FE3"/>
		</linearGradient>
		<path fill="url(#SVGID_8_)" d="M118.961,12.464h4.625l-1.961,12.297c2.08-0.818,4.189-2.679,4.979-5.218h4.879
			c-1.086,3.949-3.426,5.923-5.092,6.854l4.188,8.122h-5.076l-3.277-6.628l-1.072,0.027l-1.064,6.601h-4.625L118.961,12.464z"/>
		<linearGradient id="SVGID_9_" gradientUnits="userSpaceOnUse" x1="136.9014" y1="34.54" x2="136.9014" y2="15.2847">
			<stop  offset="0" style="stop-color:#01519E"/>
			<stop  offset="1" style="stop-color:#009FE3"/>
		</linearGradient>
		<path fill="url(#SVGID_9_)" d="M132.072,20.445l2.434-0.931l1.391-4.174h3.906l-0.67,4.174h2.975l-0.529,3.357h-2.975
			l-0.869,5.448c-0.338,2.2,0.037,2.546,0.734,2.864c0,0,1.348,0.571,1.502,0.571l-0.438,2.784h-3.016
			c-2.377,0-4.141-1.473-3.533-5.372l0.994-6.296h-2.283L132.072,20.445z"/>
		<linearGradient id="SVGID_10_" gradientUnits="userSpaceOnUse" x1="149.3584" y1="34.6738" x2="149.3584" y2="15.2845">
			<stop  offset="0" style="stop-color:#01519E"/>
			<stop  offset="1" style="stop-color:#009FE3"/>
		</linearGradient>
		<path fill="url(#SVGID_10_)" d="M149.771,19.262c2.229-0.064,5.492,0.366,6.932,1.748l-1.977,13.467h-3.607l-0.713-1.48
			c-0.711,1.064-2.609,1.678-4.273,1.678c-2.812,0-4.977-2.765-3.785-8.714C143.596,19.734,146.992,19.332,149.771,19.262z
			 M148.1,30.874c1.432,0,2.18-0.537,2.723-1.438l0.939-6.395c-0.594-0.261-1.623-0.36-2.336-0.198
			c-1.072,0.232-2.086,0.628-2.561,3.815C146.5,29.11,146.494,30.874,148.1,30.874z"/>
	</g>
</g>
</svg>
